HIERARCHY
ROOT joint_0
{
	OFFSET 0.000000 0.000000 0.000000
	CHANNELS 6 Xposition Yposition Zposition Zrotation Yrotation Xrotation 
	JOINT joint_1
	{
		OFFSET 3.886261 -0.864090 119.041016
		CHANNELS 3 Zrotation Yrotation Xrotation
		JOINT joint_2
		{
			OFFSET -8.814819 -1.400200 108.366943
			CHANNELS 3 Zrotation Yrotation Xrotation
			JOINT joint_3
			{
				OFFSET -10.127777 -1.846550 108.123047
				CHANNELS 3 Zrotation Yrotation Xrotation
				JOINT joint_4
				{
					OFFSET -0.104309 -2.852760 150.227051
					CHANNELS 3 Zrotation Yrotation Xrotation
					JOINT joint_5
					{
						OFFSET 20.206146 2.292160 92.163940
						CHANNELS 3 Zrotation Yrotation Xrotation
						End Site
						{
							OFFSET 0.000000 0.000000 0.000000
						}
					}
				}
				JOINT joint_6
				{
					OFFSET 0.345886 -34.260384 83.589966
					CHANNELS 3 Zrotation Yrotation Xrotation
					JOINT joint_7
					{
						OFFSET -3.824402 -146.174217 -19.015991
						CHANNELS 3 Zrotation Yrotation Xrotation
						JOINT joint_8
						{
							OFFSET 134.098145 -24.802032 -261.230957
							CHANNELS 3 Zrotation Yrotation Xrotation
							JOINT joint_9
							{
								OFFSET 123.899048 209.340523 59.187012
								CHANNELS 3 Zrotation Yrotation Xrotation
								End Site
								{
									OFFSET 0.000000 0.000000 0.000000
								}
							}
						}
					}
				}
				JOINT joint_10
				{
					OFFSET -0.423798 31.098438 84.831055
					CHANNELS 3 Zrotation Yrotation Xrotation
					JOINT joint_11
					{
						OFFSET 3.093201 146.891491 -12.504028
						CHANNELS 3 Zrotation Yrotation Xrotation
						JOINT joint_12
						{
							OFFSET 195.631927 -20.967743 -219.380981
							CHANNELS 3 Zrotation Yrotation Xrotation
							JOINT joint_13
							{
								OFFSET -8.651001 -247.511261 -36.616089
								CHANNELS 3 Zrotation Yrotation Xrotation
								End Site
								{
									OFFSET 0.000000 0.000000 0.000000
								}
							}
						}
					}
				}
			}
		}
	}
	JOINT joint_14
	{
		OFFSET 6.948090 -87.642914 -106.942017
		CHANNELS 3 Zrotation Yrotation Xrotation
		JOINT joint_15
		{
			OFFSET -34.394226 4.543823 -458.972961
			CHANNELS 3 Zrotation Yrotation Xrotation
			JOINT joint_16
			{
				OFFSET -17.051544 6.964645 -485.636009
				CHANNELS 3 Zrotation Yrotation Xrotation
				JOINT joint_17
				{
					OFFSET 190.520630 40.462875 -83.888000
					CHANNELS 3 Zrotation Yrotation Xrotation
					End Site
					{
						OFFSET 0.000000 0.000000 0.000000
					}
				}
			}
		}
	}
	JOINT joint_18
	{
		OFFSET 3.929901 87.535423 -107.188965
		CHANNELS 3 Zrotation Yrotation Xrotation
		JOINT joint_19
		{
			OFFSET -34.463440 -10.383845 -458.873047
			CHANNELS 3 Zrotation Yrotation Xrotation
			JOINT joint_20
			{
				OFFSET 14.641205 -11.071349 -485.637978
				CHANNELS 3 Zrotation Yrotation Xrotation
				JOINT joint_21
				{
					OFFSET 194.569275 -4.161928 -84.249998
					CHANNELS 3 Zrotation Yrotation Xrotation
					End Site
					{
						OFFSET 0.000000 0.000000 0.000000
					}
				}
			}
		}
	}
}
MOTION
Frames: 12
Frame Time: 0.016667
-314.768433 -66.455269 1157.234985 -1.032346 1.855757 0.073687 -0.466432 -5.464573 1.511693 -0.556389 0.684667 -0.358295 -0.529004 -1.234836 0.286983 -0.076168 0.022880 0.340707 0.000000 0.000000 0.000000 6.723432 7.587724 1.609693 1.704943 8.575288 -8.497430 -18.942932 21.312633 -42.492740 0.000000 0.000000 0.000000 -0.197051 9.622994 -8.051984 19.398083 12.009592 7.432767 29.973153 -9.280068 16.643397 0.000000 0.000000 0.000000 -0.368363 -1.839409 -1.726469 -0.495220 -0.893161 0.118352 -0.445482 1.217327 -0.454318 0.000000 0.000000 0.000000 -2.128559 -1.678449 0.974824 -2.153233 0.990338 0.431236 -2.163564 -0.426184 -0.946453 0.000000 0.000000 0.000000 
-314.578644 -66.615326 1157.214966 -1.050217 1.841962 0.072406 -0.427446 -5.519125 1.455031 -0.511575 0.690007 -0.351886 -0.485708 -1.245218 0.280404 -0.089520 0.103820 0.390990 0.000000 0.000000 0.000000 6.807589 7.588228 1.717503 2.247796 8.505265 -8.790676 -18.743730 21.453855 -43.194172 0.000000 0.000000 0.000000 -0.358570 9.514118 -8.026794 18.844686 11.911108 7.575630 30.219726 -9.637822 17.678282 0.000000 0.000000 0.000000 -0.364823 -1.796720 -1.717837 -0.491795 -0.929075 0.119245 -0.441235 1.234923 -0.456192 0.000000 0.000000 0.000000 -2.123278 -1.661026 0.985768 -2.146945 1.012861 0.425860 -2.155991 -0.452796 -0.943735 0.000000 0.000000 0.000000 
-314.372406 -66.842094 1157.171021 -1.055242 1.827217 0.072169 -0.393458 -5.568193 1.384626 -0.470017 0.695936 -0.337907 -0.446948 -1.254223 0.267616 -0.101194 0.173529 0.435090 0.000000 0.000000 0.000000 6.903910 7.590103 1.860137 2.822922 8.427565 -9.069834 -18.502370 21.582429 -43.864328 0.000000 0.000000 0.000000 -0.538649 9.421144 -8.008348 18.270445 11.819699 7.705481 30.447132 -9.992750 18.691708 0.000000 0.000000 0.000000 -0.366453 -1.750085 -1.703576 -0.492866 -0.965927 0.115565 -0.441609 1.250302 -0.459628 0.000000 0.000000 0.000000 -2.122801 -1.639413 0.999399 -2.145123 1.029348 0.421851 -2.153127 -0.478619 -0.943044 0.000000 0.000000 0.000000 
-314.147675 -67.189301 1157.093018 -1.048431 1.807436 0.075659 -0.365944 -5.608073 1.291141 -0.432053 0.703412 -0.310940 -0.413825 -1.258673 0.245459 -0.107989 0.219160 0.460145 0.000000 0.000000 0.000000 7.005816 7.591144 2.049951 3.414761 8.339334 -9.325053 -18.207149 21.687844 -44.457003 0.000000 0.000000 0.000000 -0.723122 9.358390 -7.984084 17.687287 11.745388 7.808836 30.633714 -10.324086 19.633866 0.000000 0.000000 0.000000 -0.373484 -1.697925 -1.681913 -0.498294 -0.997736 0.104197 -0.446712 1.260701 -0.464088 0.000000 0.000000 0.000000 -2.127484 -1.605470 1.014845 -2.147986 1.033682 0.421137 -2.155412 -0.502051 -0.944540 0.000000 0.000000 0.000000 
-313.896973 -67.645821 1156.979004 -1.028432 1.784360 0.081896 -0.344579 -5.642144 1.175775 -0.397454 0.712503 -0.271359 -0.386029 -1.259833 0.214724 -0.111138 0.247336 0.470907 0.000000 0.000000 0.000000 7.121207 7.592704 2.286396 4.043117 8.239400 -9.567718 -17.846690 21.775545 -44.994073 0.000000 0.000000 0.000000 -0.920841 9.315001 -7.958475 17.078803 11.679251 7.898856 30.782734 -10.640142 20.542911 0.000000 0.000000 0.000000 -0.386233 -1.639453 -1.652784 -0.508468 -1.028677 0.085849 -0.456829 1.267052 -0.469893 0.000000 0.000000 0.000000 -2.137784 -1.561613 1.033097 -2.155945 1.027141 0.422849 -2.163193 -0.523732 -0.948386 0.000000 0.000000 0.000000 
-313.674164 -68.061348 1156.880981 -0.997188 1.762908 0.087716 -0.326332 -5.664384 1.063512 -0.366391 0.719960 -0.233419 -0.361426 -1.259524 0.185471 -0.113937 0.259346 0.482060 0.000000 0.000000 0.000000 7.212498 7.584508 2.510924 4.602876 8.137880 -9.753782 -17.567803 21.866184 -45.503808 0.000000 0.000000 0.000000 -1.120650 9.303407 -7.939560 16.538934 11.647745 7.909634 30.992020 -10.957202 21.344439 0.000000 0.000000 0.000000 -0.402623 -1.585941 -1.625475 -0.522350 -1.054353 0.067949 -0.470718 1.270170 -0.476670 0.000000 0.000000 0.000000 -2.151366 -1.524050 1.049823 -2.167550 1.024028 0.425119 -2.174632 -0.544664 -0.953800 0.000000 0.000000 0.000000 
-313.514954 -68.331375 1156.833008 -0.950394 1.745311 0.090438 -0.311457 -5.669626 0.974123 -0.341828 0.726067 -0.211046 -0.340772 -1.259353 0.167687 -0.118606 0.254197 0.503723 0.000000 0.000000 0.000000 7.251419 7.557295 2.677009 5.026942 8.037886 -9.847167 -17.477731 21.974535 -46.017838 0.000000 0.000000 0.000000 -1.315051 9.337949 -7.931340 16.133290 11.677820 7.762087 31.367110 -11.303899 21.987467 0.000000 0.000000 0.000000 -0.422784 -1.543476 -1.605485 -0.540688 -1.071285 0.055015 -0.489020 1.269182 -0.484513 0.000000 0.000000 0.000000 -2.168827 -1.501252 1.063393 -2.183690 1.030193 0.425814 -2.190470 -0.563755 -0.961075 0.000000 0.000000 0.000000 
-313.400848 -68.514786 1156.814941 -0.888325 1.728698 0.091661 -0.300525 -5.655695 0.896323 -0.322915 0.727945 -0.196897 -0.324271 -1.257825 0.156652 -0.123858 0.231504 0.530149 0.000000 0.000000 0.000000 7.250515 7.514222 2.805740 5.354949 7.934495 -9.862818 -17.526762 22.092878 -46.533553 0.000000 0.000000 0.000000 -1.509065 9.412817 -7.929787 15.830431 11.759969 7.477282 31.880181 -11.679745 22.498378 0.000000 0.000000 0.000000 -0.447316 -1.506925 -1.589541 -0.563721 -1.081008 0.044261 -0.512057 1.263771 -0.493496 0.000000 0.000000 0.000000 -2.190597 -1.486296 1.075154 -2.204453 1.041187 0.425246 -2.210884 -0.581543 -0.970303 0.000000 0.000000 0.000000 
-313.322388 -68.623924 1156.822998 -0.828708 1.721461 0.092093 -0.289211 -5.644691 0.825780 -0.304406 0.729569 -0.185857 -0.307655 -1.257161 0.148147 -0.129367 0.201740 0.558593 0.000000 0.000000 0.000000 7.224636 7.465724 2.904376 5.575597 7.842790 -9.802584 -17.713395 22.215050 -47.040667 0.000000 0.000000 0.000000 -1.683840 9.501912 -7.932126 15.630661 11.860380 7.188230 32.381204 -12.022976 22.870660 0.000000 0.000000 0.000000 -0.471083 -1.485424 -1.579898 -0.586586 -1.086372 0.037969 -0.534848 1.257461 -0.502179 0.000000 0.000000 0.000000 -2.210906 -1.491812 1.081338 -2.225372 1.067672 0.429409 -2.231164 -0.604990 -0.979595 0.000000 0.000000 0.000000 
-313.285553 -68.642883 1156.862061 -0.785156 1.730267 0.092391 -0.273144 -5.647193 0.762521 -0.281733 0.728750 -0.175910 -0.286792 -1.260411 0.139589 -0.135181 0.172822 0.588260 0.000000 0.000000 0.000000 7.173285 7.416484 2.969140 5.656266 7.774121 -9.643256 -18.088342 22.342773 -47.552772 0.000000 0.000000 0.000000 -1.825211 9.592072 -7.934663 15.546573 11.963874 6.967715 32.785942 -12.291563 23.090441 0.000000 0.000000 0.000000 -0.489778 -1.487011 -1.580713 -0.605457 -1.089590 0.039419 -0.553413 1.253749 -0.509552 0.000000 0.000000 0.000000 -2.224995 -1.527432 1.076970 -2.242868 1.115868 0.443917 -2.247633 -0.638956 -0.987460 0.000000 0.000000 0.000000 
-313.289917 -68.568680 1156.932983 -0.750274 1.751945 0.092481 -0.254580 -5.657206 0.707420 -0.257344 0.726420 -0.168459 -0.263873 -1.266573 0.132381 -0.141320 0.140045 0.619830 0.000000 0.000000 0.000000 7.092401 7.362177 2.996647 5.598746 7.722864 -9.380403 -18.658853 22.474855 -48.076617 0.000000 0.000000 0.000000 -1.938151 9.693151 -7.937043 15.579324 12.084182 6.763208 33.150971 -12.506292 23.157901 0.000000 0.000000 0.000000 -0.505566 -1.507775 -1.591177 -0.622388 -1.090065 0.047521 -0.569854 1.250915 -0.516176 0.000000 0.000000 0.000000 -2.235271 -1.587569 1.063362 -2.258808 1.180270 0.466387 -2.262317 -0.679210 -0.994689 0.000000 0.000000 0.000000 
-313.304596 -68.496155 1156.999023 -0.717243 1.776537 0.091555 -0.235704 -5.667481 0.650534 -0.232476 0.724582 -0.160406 -0.240528 -1.272950 0.125306 -0.146836 0.105267 0.648865 0.000000 0.000000 0.000000 7.007872 7.315705 3.022318 5.507068 7.684333 -9.117165 -19.207714 22.582746 -48.523644 0.000000 0.000000 0.000000 -2.038329 9.794310 -7.932177 15.684309 12.204024 6.624301 33.416078 -12.651393 23.118644 0.000000 0.000000 0.000000 -0.521613 -1.534367 -1.600680 -0.639433 -1.086576 0.055519 -0.586530 1.244948 -0.522236 0.000000 0.000000 0.000000 -2.244078 -1.665518 1.051632 -2.274141 1.273300 0.487309 -2.275412 -0.737342 -1.001605 0.000000 0.000000 0.000000 
